<?xml version="1.0" encoding="utf-8"?>
<!-- Generator: Adobe Illustrator 27.9.1, SVG Export Plug-In . SVG Version: 6.00 Build 0)  -->
<svg version="1.1" id="Capa_1" xmlns="http://www.w3.org/2000/svg" xmlns:xlink="http://www.w3.org/1999/xlink" x="0px" y="0px"
	 viewBox="0 0 265 173" style="enable-background:new 0 0 265 173;" xml:space="preserve">
<style type="text/css">
	.st0{fill:#F4041B;}
	.st1{fill:none;stroke:#F4041B;stroke-width:2;stroke-miterlimit:10;}
	.st2{fill:none;stroke:#F4041B;stroke-width:3;stroke-miterlimit:10;}
	.st3{fill:none;stroke:#000000;stroke-width:3;stroke-miterlimit:10;}
</style>
<g>
	<g>
		<path class="st0" d="M38.6,126h1.3v9.8h-1.3V126z"/>
		<path class="st0" d="M43.6,126h1.3l3.6,6.2l1.1,2h0.1c-0.1-1-0.2-2.1-0.2-3.1V126h1.2v9.8h-1.3l-3.6-6.2l-1.1-2h-0.1
			c0.1,1,0.2,2,0.2,3.1v5.2h-1.2V126z"/>
		<path class="st0" d="M53.8,131c0-3.2,1.9-5.1,4.5-5.1c1.4,0,2.3,0.6,2.8,1.2l-0.7,0.8c-0.5-0.5-1.1-0.9-2.1-0.9
			c-2,0-3.3,1.5-3.3,4c0,2.5,1.2,4,3.3,4c0.7,0,1.4-0.2,1.8-0.6v-2.6h-2.1v-1h3.2v4.1c-0.6,0.7-1.7,1.1-3,1.1
			C55.6,136.1,53.8,134.2,53.8,131z"/>
		<path class="st0" d="M64.7,126h5.7v1.1h-4.4v3.1h3.7v1.1h-3.7v3.6h4.6v1.1h-5.8V126z"/>
		<path class="st0" d="M73.7,126H75l3.6,6.2l1.1,2h0.1c-0.1-1-0.2-2.1-0.2-3.1V126h1.2v9.8h-1.3l-3.6-6.2l-1.1-2h-0.1
			c0.1,1,0.2,2,0.2,3.1v5.2h-1.2V126z"/>
		<path class="st0" d="M84.4,126h1.3v9.8h-1.3V126z"/>
		<path class="st0" d="M89.4,126h5.7v1.1h-4.4v3.1h3.7v1.1h-3.7v3.6h4.6v1.1h-5.8V126z"/>
		<path class="st0" d="M98.4,126h3.1c2,0,3.4,0.7,3.4,2.8c0,2-1.4,2.9-3.4,2.9h-1.8v4.2h-1.3V126z M101.3,130.7
			c1.5,0,2.4-0.6,2.4-1.9c0-1.3-0.8-1.8-2.4-1.8h-1.7v3.7H101.3z M101.2,131.4l1-0.6l3,5.2h-1.4L101.2,131.4z"/>
		<path class="st0" d="M108,126h1.3v9.8H108V126z"/>
		<path class="st0" d="M115,126h1.4l3.3,9.8h-1.3l-1.7-5.5c-0.4-1.1-0.7-2.2-1-3.3h-0.1c-0.3,1.1-0.6,2.2-1,3.3l-1.7,5.5h-1.3
			L115,126z M113.5,131.9h4.5v1h-4.5V131.9z"/>
		<path class="st0" d="M126.3,126h5.7v1.1h-4.4v3.1h3.7v1.1h-3.7v3.6h4.6v1.1h-5.8V126z"/>
		<path class="st0" d="M134.6,134.6l0.8-0.9c0.7,0.7,1.7,1.2,2.7,1.2c1.3,0,2.1-0.6,2.1-1.6c0-1-0.7-1.3-1.6-1.7L137,131
			c-0.9-0.4-2-1.1-2-2.5c0-1.5,1.3-2.6,3.1-2.6c1.2,0,2.2,0.5,2.9,1.2l-0.7,0.8c-0.6-0.6-1.3-0.9-2.2-0.9c-1.1,0-1.8,0.6-1.8,1.4
			c0,0.9,0.9,1.3,1.6,1.6l1.4,0.6c1.1,0.5,2,1.2,2,2.6c0,1.6-1.3,2.8-3.4,2.8C136.6,136.1,135.4,135.5,134.6,134.6z"/>
		<path class="st0" d="M146.4,127.1h-3V126h7.2v1.1h-3v8.8h-1.3V127.1z"/>
		<path class="st0" d="M153.5,126h3.1c2,0,3.4,0.7,3.4,2.8c0,2-1.4,2.9-3.4,2.9h-1.8v4.2h-1.3V126z M156.4,130.7
			c1.5,0,2.4-0.6,2.4-1.9c0-1.3-0.8-1.8-2.4-1.8h-1.7v3.7H156.4z M156.3,131.4l1-0.6l3,5.2h-1.4L156.3,131.4z"/>
		<path class="st0" d="M163,131.8V126h1.3v5.8c0,2.4,1,3.1,2.3,3.1c1.3,0,2.3-0.7,2.3-3.1V126h1.2v5.8c0,3.2-1.5,4.2-3.5,4.2
			C164.5,136.1,163,135,163,131.8z"/>
		<path class="st0" d="M173.2,131c0-3.2,1.9-5.1,4.4-5.1c1.2,0,2.1,0.6,2.7,1.2l-0.7,0.8c-0.5-0.6-1.2-0.9-2-0.9
			c-1.9,0-3.1,1.5-3.1,4c0,2.5,1.2,4,3,4c0.9,0,1.7-0.4,2.3-1.1l0.7,0.8c-0.8,0.9-1.7,1.4-3,1.4C175.1,136.1,173.2,134.2,173.2,131z
			"/>
		<path class="st0" d="M185.5,127.1h-3V126h7.2v1.1h-3v8.8h-1.3V127.1z"/>
		<path class="st0" d="M192.5,131.8V126h1.3v5.8c0,2.4,1,3.1,2.3,3.1c1.3,0,2.3-0.7,2.3-3.1V126h1.2v5.8c0,3.2-1.5,4.2-3.5,4.2
			C194,136.1,192.5,135,192.5,131.8z"/>
		<path class="st0" d="M203.3,126h3.1c2,0,3.4,0.7,3.4,2.8c0,2-1.4,2.9-3.4,2.9h-1.8v4.2h-1.3V126z M206.2,130.7
			c1.5,0,2.4-0.6,2.4-1.9c0-1.3-0.8-1.8-2.4-1.8h-1.7v3.7H206.2z M206.1,131.4l1-0.6l3,5.2h-1.4L206.1,131.4z"/>
		<path class="st0" d="M214.9,126h1.4l3.3,9.8h-1.3l-1.7-5.5c-0.4-1.1-0.7-2.2-1-3.3h-0.1c-0.3,1.1-0.6,2.2-1,3.3l-1.7,5.5h-1.3
			L214.9,126z M213.3,131.9h4.5v1h-4.5V131.9z"/>
		<path class="st0" d="M222.1,126h1.3v8.8h4.3v1.1h-5.5V126z"/>
	</g>
</g>
<g id="LPS">
	<g>
		<g>
			<path class="st0" d="M158.6,70.5h3.2v15.6h7.6v2.7h-10.9V70.5z"/>
			<path class="st0" d="M175.1,70.5h5.8c4.1,0,7.1,1.4,7.1,5.6c0,4.1-3,5.9-7,5.9h-2.6v6.7h-3.2V70.5z M180.7,79.5
				c2.7,0,4-1.1,4-3.3c0-2.3-1.4-3-4.1-3h-2.3v6.4H180.7z"/>
			<path class="st0" d="M192.5,86.5l1.9-2.2c1.3,1.2,3.1,2.1,4.8,2.1c2.1,0,3.2-0.9,3.2-2.4c0-1.5-1.2-2-2.8-2.7l-2.5-1.1
				c-1.8-0.8-3.7-2.2-3.7-4.9c0-2.9,2.6-5.2,6.1-5.2c2.1,0,4.2,0.9,5.6,2.3l-1.7,2.1c-1.2-1-2.4-1.6-4-1.6c-1.7,0-2.9,0.8-2.9,2.2
				c0,1.4,1.4,2,2.9,2.6l2.5,1c2.2,0.9,3.7,2.3,3.7,4.9c0,3-2.5,5.4-6.6,5.4C196.7,89.1,194.3,88.2,192.5,86.5z"/>
		</g>
	</g>
	<rect x="119.9" y="93" class="st0" width="117.1" height="1"/>
	<rect x="120.1" y="65.8" class="st0" width="117.1" height="1"/>
</g>
<g id="Esquina">
	<path class="st0" d="M110.1,47.9H51.6c-0.8,0-1.5-0.7-1.5-1.5v0c0-0.8,0.7-1.5,1.5-1.5h57c0.8,0,1.5,0.7,1.5,1.5V47.9z"/>
	<path class="st0" d="M108.6,107L108.6,107c-0.8,0-1.5-0.7-1.5-1.5V47.9h3v57.6C110.1,106.3,109.4,107,108.6,107z"/>
</g>
<g id="Flechas">
	<path class="st0" d="M99,55.5H52.5v-1c0-1.1,0.9-2,2-2H99V55.5z"/>
	<rect x="52.5" y="55.5" class="st0" width="3" height="48.5"/>
	<path class="st0" d="M53.6,109.8l-3.1-5.1c-0.2-0.3,0-0.7,0.4-0.7h6.2c0.4,0,0.6,0.4,0.4,0.7l-3.1,5.1
		C54.2,110.2,53.8,110.2,53.6,109.8z"/>
	<path class="st0" d="M104.7,54.4l-5.1,3.1c-0.3,0.2-0.7,0-0.7-0.4l0-6.2c0-0.4,0.4-0.6,0.7-0.4l5.1,3.1
		C105,53.7,105,54.2,104.7,54.4z"/>
</g>
<g id="Camisa">
	<path class="st1" d="M85.3,114.6c2.1,0,7.5-5.5,7.5-7.6"/>
	<path class="st1" d="M92.6,107.7c0.3-1.9,1.5-1.5,3.9-1.6c3.7-0.1,11.9,2.3,12,9.8"/>
	<path class="st0" d="M99.9,106.9h-3v6.5c0,0.8,0.7,1.5,1.5,1.5h0c0.8,0,1.5-0.7,1.5-1.5V106.9z"/>
	<path class="st1" d="M85.3,114.6c-2.1,0-7.5-5.5-7.5-7.6"/>
	<path class="st1" d="M78,107.7c-0.3-1.9-1.5-1.5-3.9-1.6c-3.7-0.1-11.9,2.3-12,9.8"/>
	<path class="st0" d="M70.8,106.9h3v6.5c0,0.8-0.7,1.5-1.5,1.5h0c-0.8,0-1.5-0.7-1.5-1.5V106.9z"/>
</g>
<g id="Plano">
	<path class="st0" d="M40.9,112.1h16.4c0.8,0,1.5,0.7,1.5,1.5l0,0c0,0.8-0.7,1.5-1.5,1.5H40.9V112.1z"/>
	<rect x="1" y="74.1" transform="matrix(9.397433e-12 -1 1 9.397433e-12 -41.0954 110.0558)" class="st0" width="66.9" height="3"/>
	
		<rect x="13.9" y="74.1" transform="matrix(9.397433e-12 -1 1 9.397433e-12 -28.1994 122.9519)" class="st0" width="66.9" height="3"/>
	<ellipse class="st2" cx="40.9" cy="42" rx="6.4" ry="4.5"/>
	<path class="st2" d="M34.5,105.5c0-2.5,2.9-4.5,6.4-4.5c3.6,0,6.4,2,6.4,4.5"/>
	<path class="st2" d="M47.4,109"/>
	<path class="st2" d="M34.5,109c0,2.5,2.9,4.5,6.4,4.5"/>
</g>
<g>
	<g id="Cabeza">
		<rect x="64.9" y="79" class="st0" width="39.9" height="2"/>
		
			<rect x="77.3" y="64.3" transform="matrix(6.123234e-17 -1 1 6.123234e-17 17.5592 148.2461)" class="st0" width="11.2" height="2"/>
		
			<rect x="66" y="74" transform="matrix(-1 -1.224647e-16 1.224647e-16 -1 142.0413 150.0176)" class="st0" width="10.1" height="2"/>
		
			<rect x="93.9" y="74" transform="matrix(-1 -1.224647e-16 1.224647e-16 -1 197.7771 150.0176)" class="st0" width="10.1" height="2"/>
		
			<rect x="62.9" y="76.1" transform="matrix(6.123234e-17 -1 1 6.123234e-17 -11.1549 143.8887)" class="st0" width="7" height="2.9"/>
		
			<rect x="99.9" y="76.1" transform="matrix(6.123234e-17 -1 1 6.123234e-17 25.9166 180.9602)" class="st0" width="7" height="2.9"/>
		
			<rect x="81.6" y="64.3" transform="matrix(6.123234e-17 -1 1 6.123234e-17 21.8005 152.4206)" class="st0" width="11.1" height="2"/>
		
			<rect x="81.9" y="59.8" transform="matrix(-1 -1.224647e-16 1.224647e-16 -1 170.0132 121.5344)" class="st0" width="6.2" height="2"/>
		<path id="Casco_00000109720264922391494850000010611696753801892992_" class="st3" d="M101.5,79.7"/>
		<path id="Casco_00000183941940722601106810000003781886217965628588_" class="st2" d="M87.1,63.4c6.5,0.8,11.9,5.5,13.7,11.7"/>
		<path id="Casco_00000168080012356542895240000000065648453073913502_" class="st2" d="M69.2,75c1.8-6.2,7.2-10.8,13.7-11.7"/>
		<path id="Casco_00000070799381787499605560000006936030831293990829_" class="st3" d="M69.2,75"/>
		<path id="Casco_00000121242585161660873660000008153033558819314869_" class="st3" d="M68.5,79.7"/>
		<circle class="st0" cx="90.1" cy="85.4" r="2"/>
		<circle class="st0" cx="79.9" cy="85.4" r="2"/>
		<path class="st1" d="M79.9,96c0-2,2.3-3.5,5.1-3.5s5.1,1.6,5.1,3.5"/>
		<rect x="81.5" y="97" class="st0" width="7" height="2"/>
		<path class="st1" d="M99.4,85.4C97.8,95.7,92,103.4,85,103.4s-12.8-7.6-14.4-17.9"/>
	</g>
	<path class="st1" d="M98.5,86.3c2,0,3.7-2,3.7-4.4c0-0.7-0.1-1.3-0.3-1.8"/>
	<path class="st1" d="M98.5,86.3c2,0,3.7-2,3.7-4.4c0-0.7-0.1-1.3-0.3-1.8"/>
	<path class="st1" d="M71.6,86.3c-2,0-3.7-2-3.7-4.4c0-0.7,0.1-1.3,0.3-1.8"/>
</g>
</svg>
